<?xml version="1.0" encoding="utf-8"?>
<!-- Generator: Adobe Illustrator 24.0.0, SVG Export Plug-In . SVG Version: 6.00 Build 0)  -->
<svg version="1.1" id="图层_1" xmlns="http://www.w3.org/2000/svg" xmlns:xlink="http://www.w3.org/1999/xlink" x="0px" y="0px"
	 viewBox="0 0 40 40" style="enable-background:new 0 0 40 40;" xml:space="preserve">
<style type="text/css">
	.st0{fill:#FFFFFF;}
	.st1{fill:#0B6DC5;}
	.st2{fill:#01AEFF;}
	.st3{fill:#1260D5;}
</style>
<g id="矩形_3_拷贝_2_">
	<g>
		<path class="st0" d="M4.64,10.11V7.56C4.64,6.15,5.82,5,7.27,5h25.45c1.45,0,2.64,1.15,2.64,2.56v2.56H4.64z"/>
	</g>
	<g>
		<path class="st1" d="M32.73,6c0.9,0,1.64,0.7,1.64,1.56v1.56H5.64V7.56C5.64,6.7,6.37,6,7.27,6H32.73 M32.73,4H7.27
			C5.26,4,3.64,5.59,3.64,7.56v3.56h32.73V7.56C36.36,5.59,34.74,4,32.73,4L32.73,4z"/>
	</g>
</g>
<g id="矩形_3_1_">
	<g>
		<path class="st2" d="M3.64,35C2.18,35,1,33.85,1,32.44V11.11C1,9.7,2.18,8.56,3.64,8.56h32.73c1.45,0,2.64,1.15,2.64,2.56v21.33
			c0,1.41-1.18,2.56-2.64,2.56H3.64z"/>
	</g>
	<g>
		<path class="st1" d="M36.36,9.56c0.9,0,1.64,0.7,1.64,1.56v21.33C38,33.3,37.27,34,36.36,34H3.64C2.73,34,2,33.3,2,32.44V11.11
			c0-0.86,0.73-1.56,1.64-1.56H36.36 M36.36,7.56H3.64C1.63,7.56,0,9.15,0,11.11v21.33C0,34.41,1.63,36,3.64,36h32.73
			c2.01,0,3.64-1.59,3.64-3.56V11.11C40,9.15,38.37,7.56,36.36,7.56L36.36,7.56z"/>
	</g>
</g>
<g id="矩形_4_拷贝_2_2_">
	<g>
		<path class="st0" d="M24.55,22.78c-1.05,0-1.91-0.85-1.91-1.89c0-1.04,0.86-1.89,1.91-1.89h9.09c1.05,0,1.91,0.85,1.91,1.89
			c0,1.04-0.86,1.89-1.91,1.89H24.55z"/>
	</g>
	<g>
		<path class="st3" d="M33.64,20c0.5,0,0.91,0.4,0.91,0.89c0,0.49-0.41,0.89-0.91,0.89h-9.09c-0.5,0-0.91-0.4-0.91-0.89
			c0-0.49,0.41-0.89,0.91-0.89H33.64 M33.64,18h-9.09c-1.6,0-2.91,1.3-2.91,2.89c0,1.59,1.31,2.89,2.91,2.89h9.09
			c1.6,0,2.91-1.3,2.91-2.89C36.55,19.3,35.24,18,33.64,18L33.64,18z"/>
	</g>
</g>
</svg>
