<?xml version="1.0" encoding="utf-8"?>
<!-- Generator: Adobe Illustrator 24.0.0, SVG Export Plug-In . SVG Version: 6.00 Build 0)  -->
<svg version="1.1" id="图层_1" xmlns="http://www.w3.org/2000/svg" xmlns:xlink="http://www.w3.org/1999/xlink" x="0px" y="0px"
	 viewBox="0 0 40 40" style="enable-background:new 0 0 40 40;" xml:space="preserve">
<style type="text/css">
	.st0{fill:#FFFFFF;}
	.st1{fill:#0B6DC5;}
	.st2{fill:#01AEFF;}
</style>
<g id="矩形_3_拷贝_3">
	<g>
		<path class="st0" d="M11.11,39c-1.41,0-2.56-1.18-2.56-2.64V7.27c0-1.45,1.15-2.64,2.56-2.64h21.33c1.41,0,2.56,1.18,2.56,2.64
			v29.09c0,1.45-1.15,2.64-2.56,2.64H11.11z"/>
	</g>
	<g>
		<path class="st1" d="M32.44,5.64C33.3,5.64,34,6.37,34,7.27v29.09c0,0.9-0.7,1.64-1.56,1.64H11.11c-0.86,0-1.56-0.73-1.56-1.64
			V7.27c0-0.9,0.7-1.64,1.56-1.64H32.44 M32.44,3.64H11.11c-1.96,0-3.56,1.63-3.56,3.64v29.09c0,2.01,1.59,3.64,3.56,3.64h21.33
			c1.96,0,3.56-1.63,3.56-3.64V7.27C36,5.26,34.41,3.64,32.44,3.64L32.44,3.64z"/>
	</g>
</g>
<g id="矩形_3_拷贝_4">
	<g>
		<path class="st2" d="M7.56,35.36C6.15,35.36,5,34.18,5,32.73V3.64C5,2.18,6.15,1,7.56,1h21.33c1.41,0,2.56,1.18,2.56,2.64v29.09
			c0,1.45-1.15,2.64-2.56,2.64H7.56z"/>
	</g>
	<g>
		<path class="st1" d="M28.89,2c0.86,0,1.56,0.73,1.56,1.64v29.09c0,0.9-0.7,1.64-1.56,1.64H7.56C6.7,34.36,6,33.63,6,32.73V3.64
			C6,2.73,6.7,2,7.56,2H28.89 M28.89,0H7.56C5.59,0,4,1.63,4,3.64v29.09c0,2.01,1.59,3.64,3.56,3.64h21.33
			c1.96,0,3.56-1.63,3.56-3.64V3.64C32.44,1.63,30.85,0,28.89,0L28.89,0z"/>
	</g>
</g>
<g id="矩形_3_拷贝_1_">
	<g>
		<path class="st0" d="M5,6.27V3.64C5,2.18,6.15,1,7.56,1h21.33c1.41,0,2.56,1.18,2.56,2.64v2.64H5z"/>
	</g>
	<g>
		<path class="st1" d="M28.89,2c0.86,0,1.56,0.73,1.56,1.64v1.64H6V3.64C6,2.73,6.7,2,7.56,2H28.89 M28.89,0H7.56
			C5.59,0,4,1.63,4,3.64v3.64h28.44V3.64C32.44,1.63,30.85,0,28.89,0L28.89,0z"/>
	</g>
</g>
<g id="矩形_4_拷贝_2_1_">
	<g>
		<path class="st0" d="M10.33,29.91v-3.46h15.78v3.46H10.33z M10.33,22.64v-3.46h15.78v3.46H10.33z M10.33,15.36v-3.45h15.78v3.45
			H10.33z"/>
	</g>
	<g>
		<path class="st1" d="M25.11,12.91v1.45H11.33v-1.45H25.11 M25.11,20.18v1.45H11.33v-1.45H25.11 M25.11,27.45v1.45H11.33v-1.45
			H25.11 M27.11,10.91H9.33v5.45h17.78V10.91L27.11,10.91z M27.11,18.18H9.33v5.45h17.78V18.18L27.11,18.18z M27.11,25.45H9.33v5.45
			h17.78V25.45L27.11,25.45z"/>
	</g>
</g>
</svg>
