<?xml version="1.0" encoding="utf-8"?>
<!-- Generator: Adobe Illustrator 24.0.0, SVG Export Plug-In . SVG Version: 6.00 Build 0)  -->
<svg version="1.1" id="图层_1" xmlns="http://www.w3.org/2000/svg" xmlns:xlink="http://www.w3.org/1999/xlink" x="0px" y="0px"
	 viewBox="0 0 40 40" style="enable-background:new 0 0 40 40;" xml:space="preserve">
<style type="text/css">
	.st0{fill:#C8C7CD;}
</style>
<g id="icon_x5F_delete">
	<g>
		<path class="st0" d="M20,0C8.95,0,0,8.95,0,20c0,11.05,8.95,20,20,20c11.05,0,20-8.95,20-20C40,8.95,31.05,0,20,0z M27.07,25.3
			c0.49,0.49,0.49,1.28,0,1.77c-0.49,0.49-1.28,0.49-1.77,0l-5.3-5.3l-5.33,5.33c-0.49,0.49-1.29,0.49-1.78,0
			c-0.49-0.49-0.49-1.29,0-1.78l5.33-5.33l-5.3-5.3c-0.49-0.49-0.49-1.28,0-1.77c0.49-0.49,1.28-0.49,1.77,0l5.3,5.3l5.37-5.37
			c0.49-0.49,1.29-0.49,1.78,0c0.49,0.49,0.49,1.29,0,1.78l-5.37,5.37L27.07,25.3z"/>
	</g>
</g>
</svg>
