<?xml version="1.0" encoding="utf-8"?>
<!-- Generator: Adobe Illustrator 24.0.0, SVG Export Plug-In . SVG Version: 6.00 Build 0)  -->
<svg version="1.1" id="图层_1" xmlns="http://www.w3.org/2000/svg" xmlns:xlink="http://www.w3.org/1999/xlink" x="0px" y="0px"
	 viewBox="0 0 40 40" style="enable-background:new 0 0 40 40;" xml:space="preserve">
<style type="text/css">
	.st0{fill-rule:evenodd;clip-rule:evenodd;}
</style>
<path class="st0" d="M20.07,22.75h1c0.83,0,1.5,0.67,1.5,1.5v6c0,0.83-0.67,1.5-1.5,1.5h-1c-0.83,0-1.5-0.67-1.5-1.5v-6
	C18.57,23.42,19.24,22.75,20.07,22.75z"/>
<path d="M27.57,15.75h-14c-0.87,0-1.71,0.14-2.5,0.4V12.2c0-5.01,4.13-9.08,9.22-9.08c5.08,0,9.22,4.07,9.22,9.08
	c0,0.83,0.67,1.5,1.5,1.5s1.5-0.67,1.5-1.5c0-6.66-5.48-12.08-12.22-12.08c-6.74,0-12.22,5.42-12.22,12.08v5.75
	c-1.54,1.46-2.5,3.51-2.5,5.8v8c0,4.42,3.58,8,8,8h14c4.42,0,8-3.58,8-8v-8C35.57,19.33,31.99,15.75,27.57,15.75z M32.57,31.75
	c0,2.76-2.24,5-5,5h-14c-2.76,0-5-2.24-5-5v-8c0-2.76,2.24-5,5-5h14c2.76,0,5,2.24,5,5V31.75z"/>
</svg>
