<?xml version="1.0" encoding="utf-8"?>
<!-- Generator: Adobe Illustrator 24.0.0, SVG Export Plug-In . SVG Version: 6.00 Build 0)  -->
<svg version="1.1" id="图层_1" xmlns="http://www.w3.org/2000/svg" xmlns:xlink="http://www.w3.org/1999/xlink" x="0px" y="0px"
	 viewBox="0 0 40 40" style="enable-background:new 0 0 40 40;" xml:space="preserve">
<style type="text/css">
	.st0{fill:#01AEFF;}
	.st1{fill:#0B6DC5;}
	.st2{fill:#FFFFFF;}
	.st3{fill:#3283FB;}
</style>
<g id="矩形_3">
	<g>
		<path class="st0" d="M7.56,39C6.15,39,5,37.82,5,36.36V7.27c0-1.45,1.15-2.64,2.56-2.64h24.89c1.41,0,2.56,1.18,2.56,2.64v29.09
			c0,1.45-1.15,2.64-2.56,2.64H7.56z"/>
	</g>
	<g>
		<path class="st1" d="M32.44,5.64C33.3,5.64,34,6.37,34,7.27v29.09c0,0.9-0.7,1.64-1.56,1.64H7.56C6.7,38,6,37.27,6,36.36V7.27
			c0-0.9,0.7-1.64,1.56-1.64H32.44 M32.44,3.64H7.56C5.59,3.64,4,5.26,4,7.27v29.09C4,38.37,5.59,40,7.56,40h24.89
			c1.96,0,3.56-1.63,3.56-3.64V7.27C36,5.26,34.41,3.64,32.44,3.64L32.44,3.64z"/>
	</g>
</g>
<g id="矩形_3_拷贝">
	<g>
		<path class="st2" d="M5,9.91V7.27c0-1.45,1.15-2.64,2.56-2.64h24.89c1.41,0,2.56,1.18,2.56,2.64v2.64H5z"/>
	</g>
	<g>
		<path class="st1" d="M32.44,5.64C33.3,5.64,34,6.37,34,7.27v1.64H6V7.27c0-0.9,0.7-1.64,1.56-1.64H32.44 M32.44,3.64H7.56
			C5.59,3.64,4,5.26,4,7.27v3.64h32V7.27C36,5.26,34.41,3.64,32.44,3.64L32.44,3.64z"/>
	</g>
</g>
<g id="矩形_4_拷贝_2">
	<g>
		<path class="st2" d="M12.11,33.55v-3.46h15.78v3.46H12.11z M12.11,26.27v-3.45h15.78v3.45H12.11z M12.11,19v-3.45h15.78V19H12.11z
			"/>
	</g>
	<g>
		<path class="st1" d="M26.89,16.55V18H13.11v-1.45H26.89 M26.89,23.82v1.45H13.11v-1.45H26.89 M26.89,31.09v1.45H13.11v-1.45H26.89
			 M28.89,14.55H11.11V20h17.78V14.55L28.89,14.55z M28.89,21.82H11.11v5.45h17.78V21.82L28.89,21.82z M28.89,29.09H11.11v5.45
			h17.78V29.09L28.89,29.09z"/>
	</g>
</g>
<g id="矩形_3_拷贝_2">
	<g>
		<path class="st3" d="M16.5,6C15.12,6,14,4.88,14,3.5S15.12,1,16.5,1h7C24.88,1,26,2.12,26,3.5S24.88,6,23.5,6H16.5z"/>
	</g>
	<g>
		<path class="st1" d="M23.5,2C24.33,2,25,2.67,25,3.5S24.33,5,23.5,5h-7C15.67,5,15,4.33,15,3.5S15.67,2,16.5,2H23.5 M23.5,0h-7
			C14.57,0,13,1.57,13,3.5S14.57,7,16.5,7h7C25.43,7,27,5.43,27,3.5S25.43,0,23.5,0L23.5,0z"/>
	</g>
</g>
</svg>
