<?xml version="1.0" encoding="utf-8"?>
<!-- Generator: Adobe Illustrator 24.0.0, SVG Export Plug-In . SVG Version: 6.00 Build 0)  -->
<svg version="1.1" id="图层_1" xmlns="http://www.w3.org/2000/svg" xmlns:xlink="http://www.w3.org/1999/xlink" x="0px" y="0px"
	 viewBox="0 0 40 40" style="enable-background:new 0 0 40 40;" xml:space="preserve">
<style type="text/css">
	.st0{fill:#FFFFFF;}
	.st1{fill:#0B6DC5;}
	.st2{fill:#01AEFF;}
	.st3{fill:#1260D5;}
</style>
<g id="矩形_3_拷贝_5">
	<g>
		<path class="st0" d="M9.79,8C8.8,8,8,7.1,8,6s0.8-2,1.79-2h20.43C31.2,4,32,4.9,32,6s-0.8,2-1.79,2H9.79z"/>
	</g>
	<g>
		<path class="st1" d="M30.21,5C30.64,5,31,5.46,31,6s-0.36,1-0.79,1H9.79C9.36,7,9,6.54,9,6s0.36-1,0.79-1H30.21 M30.21,3H9.79
			C8.25,3,7,4.34,7,6s1.25,3,2.79,3h20.43C31.75,9,33,7.66,33,6S31.75,3,30.21,3L30.21,3z"/>
	</g>
</g>
<g id="矩形_3_拷贝_3_">
	<g>
		<path class="st0" d="M6.36,11c-0.95,0-1.73-0.9-1.73-2s0.77-2,1.73-2h27.27c0.95,0,1.73,0.9,1.73,2s-0.77,2-1.73,2H6.36z"/>
	</g>
	<g>
		<path class="st1" d="M33.64,8c0.39,0,0.73,0.47,0.73,1s-0.34,1-0.73,1H6.36c-0.39,0-0.73-0.47-0.73-1s0.34-1,0.73-1H33.64
			 M33.64,6H6.36C4.86,6,3.64,7.34,3.64,9s1.22,3,2.73,3h27.27c1.51,0,2.73-1.34,2.73-3S35.14,6,33.64,6L33.64,6z"/>
	</g>
</g>
<g id="矩形_3_2_">
	<g>
		<path class="st2" d="M3.64,37C2.18,37,1,35.83,1,34.4V12.8c0-1.43,1.18-2.6,2.64-2.6h32.73c1.45,0,2.64,1.17,2.64,2.6v21.6
			c0,1.43-1.18,2.6-2.64,2.6H3.64z"/>
	</g>
	<g>
		<path class="st1" d="M36.36,11.2c0.9,0,1.64,0.72,1.64,1.6v21.6c0,0.88-0.73,1.6-1.64,1.6H3.64C2.73,36,2,35.28,2,34.4V12.8
			c0-0.88,0.73-1.6,1.64-1.6H36.36 M36.36,9.2H3.64C1.63,9.2,0,10.81,0,12.8v21.6C0,36.39,1.63,38,3.64,38h32.73
			c2.01,0,3.64-1.61,3.64-3.6V12.8C40,10.81,38.37,9.2,36.36,9.2L36.36,9.2z"/>
	</g>
</g>
<g id="_xFFE5_">
	<g>
		<path class="st0" d="M20,31.8c-1.46,0-2.38-0.85-2.46-2.27l0-0.93h-1.83c-1.2,0-2.17-0.99-2.17-2.2c0-0.63,0.26-1.2,0.68-1.6
			c-0.42-0.4-0.68-0.97-0.68-1.6c0-1.05,0.73-1.93,1.7-2.15l-1.21-1.73c-0.31-0.39-0.49-0.89-0.49-1.43v-0.06l0.01-0.06
			c0.15-1.34,1.01-2.21,2.33-2.37L16,15.39l0.11,0.01c0.8,0.08,1.44,0.44,1.87,1.04L20,19.4l2.02-2.94
			c0.43-0.61,1.08-0.97,1.88-1.06L24,15.39l0.11,0.01c1.33,0.16,2.18,1.02,2.33,2.36l0.01,0.06v0.06c0,0.54-0.17,1.04-0.52,1.48
			l-1.18,1.69c0.97,0.22,1.7,1.1,1.7,2.15c0,0.63-0.26,1.2-0.68,1.6c0.42,0.4,0.68,0.97,0.68,1.6c0,1.21-0.97,2.2-2.17,2.2h-1.83
			v0.87C22.38,30.95,21.46,31.8,20,31.8z"/>
	</g>
	<g>
		<path class="st3" d="M23.99,16.4c0.87,0.11,1.36,0.6,1.46,1.49c0,0.31-0.1,0.6-0.31,0.86L22.88,22h1.41c0.65,0,1.17,0.54,1.17,1.2
			c0,0.66-0.52,1.2-1.17,1.2h-2.83v0.8h2.83c0.65,0,1.17,0.54,1.17,1.2c0,0.66-0.52,1.2-1.17,1.2h-2.83v1.87
			c-0.05,0.89-0.54,1.33-1.46,1.33c-0.92,0-1.41-0.44-1.46-1.33V27.6h-2.83c-0.65,0-1.17-0.54-1.17-1.2c0-0.66,0.52-1.2,1.17-1.2
			h2.83v-0.8h-2.83c-0.65,0-1.17-0.54-1.17-1.2c0-0.66,0.52-1.2,1.17-1.2h1.41l-2.27-3.25c-0.21-0.26-0.31-0.55-0.31-0.86
			c0.1-0.89,0.59-1.38,1.46-1.49c0.51,0.05,0.9,0.26,1.15,0.63L20,21.17l2.84-4.15C23.1,16.66,23.48,16.45,23.99,16.4 M24.01,14.39
			l-0.22,0.02c-1.39,0.14-2.17,0.88-2.59,1.47L20,17.64l-1.19-1.74c-0.61-0.87-1.5-1.37-2.6-1.48l-0.22-0.02l-0.22,0.03
			c-1.8,0.22-3,1.43-3.21,3.24l-0.01,0.11v0.11c0,0.74,0.24,1.44,0.69,2.04l0.52,0.75c-0.74,0.59-1.22,1.5-1.22,2.52
			c0,0.58,0.15,1.13,0.43,1.6c-0.27,0.47-0.43,1.02-0.43,1.6c0,1.76,1.42,3.2,3.17,3.2h0.83c0.12,1.94,1.47,3.2,3.46,3.2
			c1.98,0,3.34-1.26,3.46-3.2h0.83c1.75,0,3.17-1.44,3.17-3.2c0-0.58-0.15-1.13-0.43-1.6c0.27-0.47,0.43-1.02,0.43-1.6
			c0-1.02-0.48-1.93-1.22-2.52l0.52-0.75c0.45-0.6,0.69-1.31,0.69-2.04v-0.12l-0.01-0.12c-0.21-1.81-1.41-3.02-3.21-3.24
			L24.01,14.39L24.01,14.39z"/>
	</g>
</g>
</svg>
