<?xml version="1.0" encoding="utf-8"?>
<!-- Generator: Adobe Illustrator 24.0.0, SVG Export Plug-In . SVG Version: 6.00 Build 0)  -->
<svg version="1.1" id="图层_1" xmlns="http://www.w3.org/2000/svg" xmlns:xlink="http://www.w3.org/1999/xlink" x="0px" y="0px"
	 viewBox="0 0 40 40" style="enable-background:new 0 0 40 40;" xml:space="preserve">
<style type="text/css">
	.st0{fill:#323232;}
</style>
<g id="矩形_11">
	<g>
		<path class="st0" d="M32,3c0.55,0,1,0.45,1,1v32c0,0.55-0.45,1-1,1H8c-0.55,0-1-0.45-1-1V4c0-0.55,0.45-1,1-1H32 M32,0H8
			C5.79,0,4,1.79,4,4v32c0,2.21,1.79,4,4,4h24c2.21,0,4-1.79,4-4V4C36,1.79,34.21,0,32,0L32,0z"/>
	</g>
</g>
<g id="矩形_11_拷贝">
	<g>
		<path class="st0" d="M26,0H14c-1.1,0-2,0.9-2,2v2c0,1.1,0.9,2,2,2h12c1.1,0,2-0.9,2-2V2C28,0.9,27.1,0,26,0z"/>
	</g>
</g>
<g id="椭圆_1">
	<g>
		<path class="st0" d="M20.97,29.72c-1.66,0-3,1.34-3,3c0,1.66,1.34,3,3,3c1.66,0,3-1.34,3-3C23.97,31.06,22.63,29.72,20.97,29.72
			L20.97,29.72z"/>
	</g>
</g>
</svg>
